<svg id="visual" viewBox="0 0 900 600" width="900" height="600" xmlns="http://www.w3.org/2000/svg" xmlns:xlink="http://www.w3.org/1999/xlink" version="1.1"><rect x="0" y="0" width="900" height="600" fill="#eee"></rect><defs><linearGradient id="grad1_0" x1="33.3%" y1="0%" x2="100%" y2="100%"><stop offset="20%" stop-color="#eeeeee" stop-opacity="1"></stop><stop offset="80%" stop-color="#eeeeee" stop-opacity="1"></stop></linearGradient></defs><defs><linearGradient id="grad2_0" x1="0%" y1="0%" x2="66.7%" y2="100%"><stop offset="20%" stop-color="#eeeeee" stop-opacity="1"></stop><stop offset="80%" stop-color="#eeeeee" stop-opacity="1"></stop></linearGradient></defs><g transform="translate(900, 0)"><path d="M0 243.4C-20.6 240.4 -41.1 237.4 -62.6 233.8C-84.1 230.1 -106.6 225.9 -121.7 210.8C-136.8 195.6 -144.7 169.5 -147.1 147.1C-149.5 124.6 -146.5 105.8 -161.9 93.5C-177.4 81.2 -211.3 75.6 -228 61.1C-244.6 46.6 -244 23.3 -243.4 0L0 0Z" fill="#2F9E2F"></path></g><g transform="translate(0, 600)"><path d="M0 -243.4C24.2 -244.6 48.3 -245.7 60.8 -227C73.3 -208.2 74.1 -169.5 93 -161.1C111.9 -152.6 148.7 -174.4 172.1 -172.1C195.4 -169.8 205.2 -143.5 207.8 -120C210.4 -96.5 205.9 -75.9 210.6 -56.4C215.3 -36.9 229.3 -18.5 243.4 0L0 0Z" fill="#2F9E2F"></path></g></svg>